<svg width="1024" height="1024" viewBox="0 0 1024 1024" xmlns="http://www.w3.org/2000/svg">
  <!-- Light rounded tile so the mark reads on dark taskbars/backgrounds; hairline for edge definition on white. -->
  <rect x="8" y="8" width="1008" height="1008" rx="188" ry="188" fill="#F4F6FB" stroke="#DCE2EF" stroke-width="8"/>
  <!-- The jobfinder funnel/filter mark (Lucide "funnel"), navy #0A2456, centred at ~20% safe margin. -->
  <g transform="translate(512,512) scale(26) translate(-12,-12)"
     fill="none" stroke="#0A2456" stroke-width="2" stroke-linecap="round" stroke-linejoin="round">
    <path d="M10 20a1 1 0 0 0 .553.895l2 1A1 1 0 0 0 14 21v-7a2 2 0 0 1 .517-1.341L21.74 4.67A1 1 0 0 0 21 3H3a1 1 0 0 0-.742 1.67l7.225 7.989A2 2 0 0 1 10 14z"/>
  </g>
</svg>
